# xmcd
#
# Track frame offsets: 
#        150
#        21945
#        45540
#        66607
#        86004
#        106482
#        119742
#        138467
#        155857
#        177612
#        196960
#        216687
#
# Disc length: 3182 seconds
#
# Revision: 0
# Processed by: cddbd v1.5.2PL0 Copyright (c) Steve Scherf et al.
# Submitted via: ExactAudioCopy v0.99pb4
#
DISCID=c60c6c0c
DTITLE=Various Artist - 全台最佳主題曲
DYEAR=1998
DGENRE=
TTITLE0=楊宗憲/無什麼代誌
TTITLE1=陳盈潔/燒酒透咖啡
TTITLE2=阿吉仔/無名的歌
TTITLE3=白冰冰/卸妝
TTITLE4=白冰冰/玫瑰的心
TTITLE5=吳欣達&王淑貞/飄浪之女
TTITLE6=阿吉仔/好歹攏是命
TTITLE7=陳盈潔&鳳娘/媽媽請你也保重
TTITLE8=晏羚/甘願傷心擱一擺\
TTITLE9=吳欣達/心已經醉已經碎
TTITLE10=小辣椒/不通將阮放
TTITLE11=王淑貞/思念你的心肝你甘知
EXTD=
EXTT0=
EXTT1=
EXTT2=
EXTT3=
EXTT4=
EXTT5=
EXTT6=
EXTT7=
EXTT8=
EXTT9=
EXTT10=
EXTT11=
PLAYORDER=
